<svg class="svg-icon" style="width: 1em;height: 1em;vertical-align: middle;fill: currentColor;overflow: hidden;" viewBox="0 0 1024 1024" version="1.1" xmlns="http://www.w3.org/2000/svg"><path d="M324.375273 622.964364h508.276363l115.525819-382.324364H235.985455z" fill="#00FFB0" /><path d="M591.127273 73.774545a40.494545 40.494545 0 0 0-40.541091 40.494546V202.007273H268.241455L229.934545 35.700364a40.494545 40.494545 0 0 0-39.470545-31.418182H56.738909a40.494545 40.494545 0 0 0 0 81.035636h101.469091l38.353455 166.306909 76.846545 332.753455h-42.775273a107.473455 107.473455 0 0 0-107.426909 107.240727 107.426909 107.426909 0 0 0 107.426909 107.240727h58.181818A128.465455 128.465455 0 0 0 279.272727 847.266909a129.722182 129.722182 0 0 0 259.351273 0c0-17.128727-3.397818-33.419636-9.495273-48.407273h116.363637a128.465455 128.465455 0 0 0-9.495273 48.407273 129.722182 129.722182 0 0 0 259.351273 0 129.722182 129.722182 0 0 0-129.629091-129.489454H230.632727a26.298182 26.298182 0 0 1-26.391272-26.158546c0-14.429091 11.869091-26.205091 26.391272-26.205091h601.925818c4.189091 0 8.098909-0.837818 11.869091-1.954909l1.861819-0.605091a39.563636 39.563636 0 0 0 9.914181-5.166545l1.582546-1.303273a40.308364 40.308364 0 0 0 7.028363-7.214545c0.372364-0.465455 0.791273-0.837818 1.117091-1.349819a40.773818 40.773818 0 0 0 4.840728-9.821091c0.139636-0.512 0.512-0.930909 0.698181-1.442909l115.432728-382.324363a40.587636 40.587636 0 0 0-38.725818-52.224H631.621818V114.315636a40.494545 40.494545 0 0 0-40.494545-40.541091zM457.588364 847.266909c0 26.717091-21.783273 48.453818-48.64 48.453818a48.593455 48.593455 0 0 1-48.64-48.407272 48.64 48.64 0 0 1 97.28 0z m308.130909 48.453818a48.593455 48.593455 0 0 1-48.686546-48.407272 48.64 48.64 0 0 1 97.28 0c0 26.670545-21.783273 48.407273-48.593454 48.407272z m127.860363-612.677818l-91.042909 301.288727H356.584727L286.999273 282.996364h263.586909v86.667636l-14.056727-11.636364a40.541091 40.541091 0 0 0-51.712 62.370909l80.430545 66.746182c0.605091 0.465455 1.210182 0.791273 1.861818 1.256728a34.769455 34.769455 0 0 0 6.516364 3.909818c0.930909 0.465455 1.815273 0.930909 2.792727 1.303272a40.866909 40.866909 0 0 0 4.561455 1.396364l2.606545 0.698182a41.146182 41.146182 0 0 0 15.080727 0c0.930909-0.186182 1.768727-0.465455 2.606546-0.698182a40.866909 40.866909 0 0 0 4.561454-1.396364l2.792728-1.303272a37.329455 37.329455 0 0 0 6.562909-3.909818c0.605091-0.465455 1.256727-0.791273 1.861818-1.256728l80.384-66.746182a40.494545 40.494545 0 0 0-51.712-62.370909l-14.056727 11.636364V283.042909H893.672727z" fill="#000A64" /></svg>